<?xml version="1.0" encoding="UTF-8" standalone="no" ?>
<!DOCTYPE svg PUBLIC "-//W3C//DTD SVG 1.1//EN" "http://www.w3.org/Graphics/SVG/1.1/DTD/svg11.dtd">
<svg xmlns="http://www.w3.org/2000/svg" xmlns:xlink="http://www.w3.org/1999/xlink" version="1.1" width="1080" height="1080" viewBox="0 0 1080 1080" xml:space="preserve">
<desc>Created with Fabric.js 5.2.4</desc>
<defs>
</defs>
<g transform="matrix(1 0 0 1 540 540)" id="4313d28e-bb95-4369-bb66-7cde39bd0566"  >
<rect style="stroke: none; stroke-width: 1; stroke-dasharray: none; stroke-linecap: butt; stroke-dashoffset: 0; stroke-linejoin: miter; stroke-miterlimit: 4; fill: rgb(255,255,255); fill-rule: nonzero; opacity: 1; visibility: hidden;" vector-effect="non-scaling-stroke"  x="-540" y="-540" rx="0" ry="0" width="1080" height="1080" />
</g>
<g transform="matrix(1 0 0 1 540 540)" id="f2da23ef-d869-4836-b2fe-d5c10c3cbf4f"  >
</g>
<g transform="matrix(3.48 0 0 3.48 541.13 541.13)" id="8e52d78d-528d-4448-84e1-547456cf0dcd"  >
<path style="stroke: rgb(0,0,0); stroke-width: 0; stroke-dasharray: none; stroke-linecap: butt; stroke-dashoffset: 0; stroke-linejoin: miter; stroke-miterlimit: 4; fill: rgb(3,255,0); fill-rule: nonzero; opacity: 1;" vector-effect="non-scaling-stroke"  transform=" translate(-151.48, -151.4)" d="M 120.5 271.7 C 9.599999999999994 243.1 0.5 240.7 0.5999999999999943 240.2 C 0.7 239.6 62.1 0.5 62.2 0.4 C 62.2 0.4 116.2 14.200000000000001 182.10000000000002 31.2 C 248.00000000000006 48.199999999999996 302.1 62 302.2 62 C 302.4 62 302.4 62.4 302.3 62.9 C 302.1 64.4 240.8 302.2 240.60000000000002 302.4 C 240.6 302.5 186.5 288.7 120.5 271.7 z M 174.9 158 C 178.1 145.4 180.8 134.9 180.9 134.6 C 181 134.1 178.6 133.4 157.70000000000002 128 C 144.9 124.7 134.20000000000002 122.1 134.10000000000002 122.2 C 133.8 122.5 122.00000000000003 168.8 122.10000000000002 168.9 C 122.30000000000003 169.1 168.8 181.1 168.90000000000003 181 C 168.9 180.9 171.6 170.6 174.9 158 L 174.9 158 z" stroke-linecap="round" />
</g>
</svg>